<?xml version="1.0" encoding="UTF-8" standalone="no"?>
<!DOCTYPE svg PUBLIC "-//W3C//DTD SVG 1.1//EN" "http://www.w3.org/Graphics/SVG/1.1/DTD/svg11.dtd">
<svg width="100%" height="100%" viewBox="0 0 1538 590" version="1.1" xmlns="http://www.w3.org/2000/svg" xmlns:xlink="http://www.w3.org/1999/xlink" xml:space="preserve" xmlns:serif="http://www.serif.com/" style="fill-rule:evenodd;clip-rule:evenodd;stroke-linejoin:round;stroke-miterlimit:2;">
    <g transform="matrix(1,0,0,1,-950.625,-837.154)">
        <g transform="matrix(3.08725,0,0,3.08725,1083.42,1421.69)">
            <g transform="matrix(1,0,0,1,5.31958,0)">
                <path d="M152.076,-111.794L147.357,-111.794L147.357,-88.036L121.483,-88.036L121.483,-83.561L147.357,-83.561L147.357,-21.073C147.465,-16.842 148.198,-13.289 149.554,-10.415C150.91,-7.54 152.781,-5.207 155.168,-3.417C157.555,-1.627 160.375,-0.339 163.63,0.448C166.884,1.234 170.464,1.627 174.37,1.627C175.889,1.627 177.38,1.614 178.845,1.587C180.309,1.559 181.774,1.465 183.239,1.302C183.998,1.248 184.757,1.166 185.517,1.058C186.276,0.949 187.036,0.814 187.795,0.651L186.9,-3.499C186.195,-3.444 185.462,-3.377 184.703,-3.295C183.944,-3.214 183.211,-3.146 182.506,-3.092C181.096,-2.983 179.686,-2.902 178.275,-2.848C176.865,-2.794 175.428,-2.766 173.963,-2.766C170.817,-2.766 167.929,-3.092 165.298,-3.743C162.667,-4.394 160.375,-5.451 158.422,-6.916C156.47,-8.326 154.937,-10.184 153.825,-12.489C152.713,-14.795 152.103,-17.656 151.995,-21.073L151.995,-83.561L183.727,-83.561L183.727,-88.036L151.995,-88.036L152.076,-111.794Z" style="fill:rgb(0,13,29);fill-rule:nonzero;"/>
            </g>
            <g transform="matrix(1,0,0,1,5.31958,0)">
                <path d="M208.234,-124.975L208.234,-120.582L240.861,-120.582L240.861,-4.394L208.234,-4.394L208.234,0L276.173,0L276.173,-4.394L245.254,-4.394L245.254,-124.975L208.234,-124.975Z" style="fill:rgb(0,13,29);fill-rule:nonzero;"/>
            </g>
            <g transform="matrix(1,0,0,1,5.31958,0)">
                <path d="M357.589,0L362.715,0L362.633,-0.732C362.091,-3.661 361.576,-6.482 361.088,-9.194C360.599,-11.906 360.328,-14.754 360.274,-17.737L360.274,-61.837C360.165,-66.447 359.257,-70.502 357.548,-74.001C355.84,-77.499 353.521,-80.415 350.592,-82.747C347.662,-85.026 344.259,-86.748 340.38,-87.914C336.502,-89.08 332.393,-89.663 328.054,-89.663C324.202,-89.663 320.338,-89.121 316.459,-88.036C312.581,-86.951 309.069,-85.351 305.923,-83.236C302.722,-81.066 300.078,-78.381 297.99,-75.18C295.901,-71.98 294.749,-68.237 294.532,-63.952L298.925,-63.789C299.088,-67.478 300.092,-70.665 301.936,-73.35C303.78,-76.035 306.085,-78.272 308.852,-80.062C311.618,-81.798 314.696,-83.1 318.087,-83.968C321.477,-84.836 324.799,-85.27 328.054,-85.27C331.742,-85.27 335.254,-84.795 338.59,-83.846C341.926,-82.896 344.869,-81.473 347.418,-79.574C349.914,-77.676 351.92,-75.262 353.439,-72.333C354.958,-69.404 355.772,-65.959 355.88,-61.999L355.88,-49.144L334.156,-49.144C329.274,-49.09 324.338,-48.656 319.348,-47.842C314.357,-47.028 309.855,-45.618 305.841,-43.611C301.773,-41.55 298.464,-38.797 295.915,-35.353C293.365,-31.908 292.091,-27.555 292.091,-22.294C292.091,-18.443 292.877,-15.025 294.45,-12.042C296.023,-9.059 298.112,-6.563 300.715,-4.556C303.319,-2.549 306.302,-1.017 309.665,0.041C313.028,1.098 316.473,1.627 319.999,1.627C323.633,1.627 327.186,1.248 330.657,0.488C334.129,-0.271 337.411,-1.41 340.502,-2.929C343.594,-4.394 346.456,-6.265 349.086,-8.543C351.717,-10.821 353.982,-13.452 355.88,-16.436C355.934,-13.669 356.07,-10.93 356.287,-8.218C356.504,-5.506 356.938,-2.766 357.589,0ZM319.999,-2.685C317.232,-2.685 314.452,-3.105 311.659,-3.946C308.865,-4.787 306.357,-6.021 304.133,-7.648C301.854,-9.276 300.01,-11.296 298.6,-13.71C297.19,-16.124 296.484,-18.876 296.484,-21.968C296.43,-26.253 297.434,-29.793 299.495,-32.586C301.556,-35.38 304.268,-37.672 307.631,-39.462C311.428,-41.523 315.741,-42.879 320.568,-43.53C325.396,-44.181 330.006,-44.56 334.4,-44.669L355.88,-44.669L355.88,-23.84C354.253,-20.368 352.192,-17.303 349.697,-14.646C347.201,-11.988 344.408,-9.764 341.316,-7.974C338.17,-6.184 334.793,-4.841 331.186,-3.946C327.579,-3.051 323.85,-2.631 319.999,-2.685Z" style="fill:rgb(0,13,29);fill-rule:nonzero;"/>
            </g>
            <g transform="matrix(1,0,0,1,5.31958,0)">
                <path d="M445.394,-21.561C445.394,-18.795 444.756,-16.368 443.482,-14.279C442.207,-12.191 440.458,-10.36 438.234,-8.787C434.979,-6.672 431.426,-5.14 427.575,-4.19C423.724,-3.241 419.927,-2.766 416.184,-2.766C412.875,-2.766 409.458,-3.065 405.932,-3.661C402.406,-4.258 399.179,-5.316 396.25,-6.835C393.266,-8.299 390.731,-10.293 388.642,-12.815C386.554,-15.337 385.293,-18.524 384.859,-22.375L380.384,-22.375C380.709,-18.036 381.957,-14.347 384.127,-11.31C386.296,-8.272 389.09,-5.804 392.507,-3.905C395.87,-2.061 399.654,-0.678 403.857,0.244C408.061,1.166 412.17,1.627 416.184,1.627C420.198,1.627 424.456,1.112 428.958,0.081C433.46,-0.949 437.501,-2.712 441.081,-5.207C443.468,-6.889 445.516,-9.099 447.224,-11.838C448.933,-14.578 449.787,-17.792 449.787,-21.48C449.787,-25.874 448.757,-29.535 446.696,-32.464C444.634,-35.393 442.004,-37.807 438.803,-39.706C435.549,-41.604 432.009,-43.123 428.185,-44.262C424.361,-45.401 420.713,-46.35 417.242,-47.11C414.367,-47.707 411.099,-48.466 407.437,-49.388C403.776,-50.31 400.454,-51.585 397.47,-53.212C394.541,-54.677 392.222,-56.602 390.514,-58.989C388.805,-61.376 387.951,-64.251 387.951,-67.614C387.951,-71.031 388.886,-73.865 390.758,-76.116C392.629,-78.367 394.948,-80.171 397.714,-81.527C400.481,-82.883 403.451,-83.846 406.624,-84.415C409.797,-84.985 412.74,-85.27 415.452,-85.27C418.652,-85.27 421.974,-84.89 425.419,-84.131C428.863,-83.371 432.05,-82.178 434.979,-80.55C437.854,-78.869 440.241,-76.713 442.139,-74.082C444.038,-71.451 445.041,-68.265 445.15,-64.522L449.706,-64.522C449.381,-69.078 448.187,-72.943 446.126,-76.116C444.065,-79.289 441.461,-81.879 438.315,-83.886C435.115,-85.893 431.535,-87.358 427.575,-88.28C423.615,-89.202 419.574,-89.663 415.452,-89.663C412.089,-89.663 408.522,-89.256 404.752,-88.443C400.983,-87.629 397.633,-86.409 394.704,-84.781C391.395,-82.937 388.71,-80.591 386.649,-77.743C384.588,-74.896 383.557,-71.465 383.557,-67.451C383.557,-63.057 384.615,-59.436 386.73,-56.589C388.846,-53.741 391.449,-51.531 394.541,-49.958C398.121,-48.168 401.593,-46.811 404.956,-45.889C408.319,-44.967 411.953,-44.099 415.859,-43.286C418.896,-42.635 422.341,-41.726 426.192,-40.56C430.043,-39.394 433.46,-37.889 436.444,-36.044C438.993,-34.471 441.122,-32.491 442.831,-30.105C444.539,-27.718 445.394,-24.87 445.394,-21.561Z" style="fill:rgb(0,13,29);fill-rule:nonzero;"/>
            </g>
        </g>
        <g transform="matrix(3.08725,0,0,3.08725,1139,1426.72)">
            <g transform="matrix(1.06812,0,0,1.06812,-1518.29,-1718.35)">
                <circle cx="1445.15" cy="1510.79" r="80.819" style="fill:rgb(0,13,29);"/>
            </g>
            <g transform="matrix(1,0,0,1,-956.948,-1903)">
                <path d="M1024.55,1784.53C1024.55,1784.53 1001.55,1784.53 1001.55,1784.53C1001.55,1784.53 957.517,1903 957.517,1903L980.52,1903L1013.05,1815.48L1045.58,1903L1068.58,1903L1024.55,1784.53Z" style="fill:rgb(175,40,47);"/>
            </g>
        </g>
    </g>
</svg>
